<svg width="118" height="40" viewBox="0 0 118 40" fill="none" xmlns="http://www.w3.org/2000/svg">
<path d="M42.0304 17.614V9.13794H44.7733C44.84 9.13794 44.9774 9.1399 45.1853 9.14383C45.3933 9.14775 45.5935 9.16148 45.7857 9.18503C46.4685 9.26743 47.0473 9.50484 47.5221 9.89725C47.997 10.2897 48.358 10.788 48.6052 11.3923C48.8524 11.9966 48.976 12.6578 48.976 13.3759C48.976 14.0941 48.8524 14.7553 48.6052 15.3596C48.358 15.9639 47.997 16.4622 47.5221 16.8546C47.0473 17.2471 46.4685 17.4845 45.7857 17.5669C45.5935 17.5904 45.3933 17.6041 45.1853 17.6081C44.9774 17.612 44.84 17.614 44.7733 17.614H42.0304ZM43.655 16.1071H44.7733C44.8793 16.1071 45.0225 16.1051 45.203 16.1012C45.3835 16.0934 45.5464 16.0757 45.6916 16.0483C46.0604 15.9737 46.3606 15.801 46.5921 15.5303C46.8276 15.2595 47.0002 14.9338 47.1101 14.5532C47.2239 14.1725 47.2808 13.7801 47.2808 13.3759C47.2808 12.9521 47.2219 12.5499 47.1042 12.1693C46.9904 11.7887 46.8158 11.4669 46.5804 11.204C46.3449 10.9411 46.0486 10.7743 45.6916 10.7036C45.5464 10.6723 45.3835 10.6546 45.203 10.6507C45.0225 10.6467 44.8793 10.6448 44.7733 10.6448H43.655V16.1071Z" fill="white" fill-opacity="0.5"/>
<path d="M49.5697 17.614L52.1596 9.13794H54.5493L57.1392 17.614H55.4911L53.1838 10.1386H53.4898L51.2178 17.614H49.5697ZM51.1236 15.8481V14.353H55.5971V15.8481H51.1236Z" fill="white" fill-opacity="0.5"/>
<path d="M59.4589 17.614V10.633H56.7866V9.13794H63.7322V10.633H61.0599V17.614H59.4589Z" fill="white" fill-opacity="0.5"/>
<path d="M63.8596 17.614L66.4495 9.13794H68.8393L71.4292 17.614H69.7811L67.4737 10.1386H67.7798L65.5077 17.614H63.8596ZM65.4136 15.8481V14.353H69.887V15.8481H65.4136Z" fill="white" fill-opacity="0.5"/>
<path d="M41.4418 30.5634L44.0317 22.0874H46.4214L49.0113 30.5634H47.3632L45.0559 23.0881H45.3619L43.0899 30.5634H41.4418ZM42.9957 28.7976V27.3025H47.4692V28.7976H42.9957Z" fill="white" fill-opacity="0.5"/>
<path d="M50.0663 30.5634V22.0874H51.6909L55.3756 27.7381V22.0874H57.0002V30.5634H55.3756L51.6909 24.9128V30.5634H50.0663Z" fill="white" fill-opacity="0.5"/>
<path d="M58.6426 30.5634V22.0874H60.2672L63.9519 27.7381V22.0874H65.5764V30.5634H63.9519L60.2672 24.9128V30.5634H58.6426Z" fill="white" fill-opacity="0.5"/>
<path d="M70.8565 30.74C70.0089 30.74 69.277 30.5556 68.661 30.1867C68.0488 29.8179 67.576 29.3018 67.2424 28.6387C66.9128 27.9755 66.748 27.2044 66.748 26.3254C66.748 25.4464 66.9128 24.6753 67.2424 24.0122C67.576 23.349 68.0488 22.833 68.661 22.4641C69.277 22.0953 70.0089 21.9108 70.8565 21.9108C71.7041 21.9108 72.434 22.0953 73.0461 22.4641C73.6622 22.833 74.1351 23.349 74.4647 24.0122C74.7982 24.6753 74.965 25.4464 74.965 26.3254C74.965 27.2044 74.7982 27.9755 74.4647 28.6387C74.1351 29.3018 73.6622 29.8179 73.0461 30.1867C72.434 30.5556 71.7041 30.74 70.8565 30.74ZM70.8565 29.2332C71.3941 29.241 71.8414 29.1253 72.1985 28.8859C72.5556 28.6465 72.8224 28.3071 72.999 27.8676C73.1795 27.4281 73.2698 26.914 73.2698 26.3254C73.2698 25.7368 73.1795 25.2267 72.999 24.795C72.8224 24.3634 72.5556 24.0279 72.1985 23.7885C71.8414 23.5491 71.3941 23.4255 70.8565 23.4177C70.3189 23.4098 69.8715 23.5256 69.5144 23.765C69.1574 24.0043 68.8886 24.3438 68.708 24.7833C68.5315 25.2228 68.4432 25.7368 68.4432 26.3254C68.4432 26.914 68.5315 27.4242 68.708 27.8558C68.8886 28.2875 69.1574 28.623 69.5144 28.8623C69.8715 29.1017 70.3189 29.2253 70.8565 29.2332Z" fill="white" fill-opacity="0.5"/>
<path d="M77.8761 30.5634V23.5825H75.2038V22.0874H82.1494V23.5825H79.4771V30.5634H77.8761Z" fill="white" fill-opacity="0.5"/>
<path d="M82.2768 30.5634L84.8667 22.0874H87.2564L89.8463 30.5634H88.1982L85.8908 23.0881H86.1969L83.9249 30.5634H82.2768ZM83.8307 28.7976V27.3025H88.3042V28.7976H83.8307Z" fill="white" fill-opacity="0.5"/>
<path d="M92.166 30.5634V23.5825H89.4937V22.0874H96.4393V23.5825H93.767V30.5634H92.166Z" fill="white" fill-opacity="0.5"/>
<path d="M97.503 30.5634V22.0874H99.104V30.5634H97.503Z" fill="white" fill-opacity="0.5"/>
<path d="M104.506 30.74C103.659 30.74 102.927 30.5556 102.311 30.1867C101.699 29.8179 101.226 29.3018 100.892 28.6387C100.563 27.9755 100.398 27.2044 100.398 26.3254C100.398 25.4464 100.563 24.6753 100.892 24.0122C101.226 23.349 101.699 22.833 102.311 22.4641C102.927 22.0953 103.659 21.9108 104.506 21.9108C105.354 21.9108 106.084 22.0953 106.696 22.4641C107.312 22.833 107.785 23.349 108.114 24.0122C108.448 24.6753 108.615 25.4464 108.615 26.3254C108.615 27.2044 108.448 27.9755 108.114 28.6387C107.785 29.3018 107.312 29.8179 106.696 30.1867C106.084 30.5556 105.354 30.74 104.506 30.74ZM104.506 29.2332C105.044 29.241 105.491 29.1253 105.848 28.8859C106.205 28.6465 106.472 28.3071 106.649 27.8676C106.829 27.4281 106.92 26.914 106.92 26.3254C106.92 25.7368 106.829 25.2267 106.649 24.795C106.472 24.3634 106.205 24.0279 105.848 23.7885C105.491 23.5491 105.044 23.4255 104.506 23.4177C103.969 23.4098 103.521 23.5256 103.164 23.765C102.807 24.0043 102.538 24.3438 102.358 24.7833C102.181 25.2228 102.093 25.7368 102.093 26.3254C102.093 26.914 102.181 27.4242 102.358 27.8558C102.538 28.2875 102.807 28.623 103.164 28.8623C103.521 29.1017 103.969 29.2253 104.506 29.2332Z" fill="white" fill-opacity="0.5"/>
<path d="M109.79 30.5634V22.0874H111.414L115.099 27.7381V22.0874H116.724V30.5634H115.099L111.414 24.9128V30.5634H109.79Z" fill="white" fill-opacity="0.5"/>
<path d="M20.4019 19.7321C20.4019 22.1652 19.934 24.1993 18.9982 25.8345C18.0723 27.4598 16.7277 28.6862 14.9645 29.5136C13.2012 30.3312 11.0785 30.74 8.59614 30.74H2.479V9.13794H9.26105C11.5267 9.13794 13.4918 9.54181 15.1566 10.3495C16.8213 11.1474 18.1117 12.3344 19.0278 13.9105C19.9439 15.4767 20.4019 17.4173 20.4019 19.7321ZM15.6442 19.8503C15.6442 18.2545 15.4077 16.9444 14.9349 15.92C14.4719 14.8857 13.7824 14.1223 12.8663 13.6298C11.9601 13.1372 10.8371 12.891 9.49746 12.891H7.05947V26.9574H9.02464C11.2607 26.9574 12.9205 26.3615 14.0041 25.1696C15.0975 23.9777 15.6442 22.2046 15.6442 19.8503Z" fill="white"/>
<path fill-rule="evenodd" clip-rule="evenodd" d="M26.726 21.7338H22.816V26.0568H27.9662L29.3927 30.74H34.3278L26.6739 9.04926H22.9633L26.1607 19.9206L26.726 21.7338Z" fill="white"/>
</svg>
