<?xml version="1.0" encoding="UTF-8" standalone="no"?>
<!-- Created with Inkscape (http://www.inkscape.org/) -->

<svg
   width="512"
   height="512"
   viewBox="0 0 135.46667 135.46667"
   version="1.1"
   id="svg1"
   inkscape:version="1.4.2 (ebf0e940, 2025-05-08)"
   inkscape:export-filename="logo-beige-square.png"
   inkscape:export-xdpi="96"
   inkscape:export-ydpi="96"
   sodipodi:docname="logo-beige-square-dark-bg.svg"
   xmlns:inkscape="http://www.inkscape.org/namespaces/inkscape"
   xmlns:sodipodi="http://sodipodi.sourceforge.net/DTD/sodipodi-0.dtd"
   xmlns="http://www.w3.org/2000/svg"
   xmlns:svg="http://www.w3.org/2000/svg">
  <sodipodi:namedview
     id="namedview1"
     pagecolor="#ffffff"
     bordercolor="#000000"
     borderopacity="0.25"
     inkscape:showpageshadow="2"
     inkscape:pageopacity="0.0"
     inkscape:pagecheckerboard="0"
     inkscape:deskcolor="#d1d1d1"
     inkscape:document-units="mm"
     inkscape:zoom="1.7977413"
     inkscape:cx="214.71387"
     inkscape:cy="308.72073"
     inkscape:window-width="2560"
     inkscape:window-height="1387"
     inkscape:window-x="0"
     inkscape:window-y="25"
     inkscape:window-maximized="0"
     inkscape:current-layer="svg1" />
  <defs
     id="defs1" />
  <rect
     style="opacity:1;fill:#2a2520;fill-opacity:1;stroke-width:0.264999;stroke-dasharray:none"
     id="rect4"
     width="140.55254"
     height="140.40535"
     x="-2.3548067"
     y="-3.0906839" />
  <g
     inkscape:label="Layer 1"
     inkscape:groupmode="layer"
     id="layer1"
     transform="translate(-64.401027,-14.049809)">
    <path
       style="fill:#d4bba2;fill-opacity:1;stroke-width:0.360829"
       d="m 66.874195,135.05116 -0.885667,-0.88567 v -1.38863 -1.38863 l 1.912308,-3.04793 c 1.051775,-1.67636 4.738489,-7.75674 8.192723,-13.51196 3.454232,-5.75522 7.761526,-12.89968 9.571771,-15.876528 8.063137,-13.259359 23.91005,-39.931504 35.58738,-59.897586 l 7.17514,-12.26818 0.91424,-0.811865 0.91422,-0.811865 h 1.55496 1.55493 l 0.92216,0.725364 0.92213,0.725359 2.86378,4.777281 c 1.57505,2.627501 5.41942,8.997494 8.54307,14.155535 l 5.67933,9.378258 2.22469,0.749265 2.2247,0.749265 1.98001,1.273959 1.98005,1.273958 1.66999,1.796544 c 2.11828,2.278815 3.24107,4.069117 4.25009,6.776932 l 0.8009,2.149306 0.20577,2.915952 0.2058,2.915948 -0.60588,2.990032 -0.60587,2.990031 -0.86634,1.958972 -0.86636,1.95897 1.9002,1.215542 c 2.85783,1.828123 4.47359,3.366717 6.73905,6.417251 l 2.0528,2.764117 1.11817,2.686002 1.11821,2.686011 0.41577,2.66854 0.4158,2.66855 -0.1914,2.55332 c -0.10527,1.40433 -0.46498,3.67755 -0.79945,5.0516 l -0.60803,2.4983 -1.46208,3.06705 -1.46207,3.06705 -3.28467,3.27342 c -1.80656,1.8004 -3.69059,3.5374 -4.18672,3.85998 l -0.90208,0.58657 12.36763,0.0189 12.36765,0.019 -0.60421,-1.1727 c -0.33228,-0.64498 -2.09966,-3.68947 -3.92747,-6.76553 -1.82785,-3.07608 -3.47955,-5.91761 -3.67049,-6.31452 l -0.34713,-0.72166 0.38649,-4.85317 0.38648,-4.85318 5.45498,9.18312 c 3.00025,5.05073 6.53186,10.94951 7.84803,13.10843 l 2.39305,3.92527 v 0.88343 0.88344 l -1.05473,1.05472 -1.05475,1.05473 H 132.03156 67.759865 Z m 83.981305,-4.89349 3.86089,-0.36613 2.53756,-0.85851 c 3.24722,-1.09862 5.22365,-2.26724 7.76931,-4.59381 l 2.04105,-1.86544 1.65152,-2.31436 1.65148,-2.31436 1.07683,-2.59084 1.07678,-2.59085 0.17488,-3.60829 0.17495,-3.60831 -0.61006,-2.34541 -0.61005,-2.3454 -1.0817,-2.035903 -1.08165,-2.035902 -1.73231,-1.933217 -1.73231,-1.933216 -1.97199,-1.18349 -1.97197,-1.183493 -3.19593,-1.047218 -3.19598,-1.04722 -0.37698,0.172656 c -0.20733,0.09496 -0.0136,-0.09734 0.43187,-0.427312 0.44487,-0.329981 1.62149,-1.696158 2.61471,-3.035945 l 1.80587,-2.435981 0.85437,-1.94216 0.85438,-1.942161 0.24746,-2.011335 0.24742,-2.011341 -0.53151,-2.549187 -0.53153,-2.549189 -0.80123,-1.573564 c -1.85848,-3.649959 -4.40063,-5.875399 -8.53262,-7.469598 l -2.44858,-0.944711 -16.66279,-0.120352 -16.66275,-0.120352 -1.30344,2.037578 C 113.3037,63.915399 104.36887,78.717453 96.056041,92.637302 84.427103,112.1101 77.164644,124.0942 74.793484,127.72365 c -0.873613,1.33719 -1.588389,2.51439 -1.588389,2.61599 0,0.10162 16.602637,0.18462 36.894765,0.18445 l 36.89477,-3e-4 z m -25.14979,-5.22305 c -0.19845,-0.0662 -0.79484,-0.2157 -1.3253,-0.33223 l -0.96448,-0.21187 -1.1652,-0.98047 -1.16523,-0.98046 -0.69996,-1.58239 -0.69997,-1.58239 0.24404,-1.30078 0.24402,-1.3008 0.96189,-1.35041 c 0.52905,-0.74272 1.32725,-1.54836 1.77376,-1.79029 l 0.81187,-0.43987 -0.004,-18.07073 -0.004,-18.070677 -1.28908,-0.835268 -1.28906,-0.835268 -0.7259,-1.64099 -0.72588,-1.64099 0.23344,-1.556629 0.23341,-1.556631 0.79496,-1.179621 0.79494,-1.179623 1.2473,-0.728452 1.24727,-0.728456 1.87945,0.02717 1.87944,0.02717 1.16429,0.681778 c 1.53041,0.89618 2.37998,2.11003 2.9177,4.168605 l 0.43953,1.682684 -0.467,1.564776 -0.46695,1.564778 -1.38295,1.318942 -1.38291,1.31894 -0.093,3.552248 -0.093,3.552247 8.01136,0.09711 8.01142,0.09711 1.39706,-0.712741 1.39709,-0.712741 0.91647,-1.089145 c 0.50404,-0.599026 1.12067,-1.702162 1.37025,-2.451416 l 0.45381,-1.362273 0.0281,-1.686807 0.0281,-1.686809 -0.74397,-0.997111 c -0.40916,-0.548413 -1.19197,-1.331895 -1.73958,-1.741068 l -0.99561,-0.743962 -4.0337,-0.180412 -4.03367,-0.180415 v -2.296781 -2.296783 l 3.96912,0.181818 3.96912,0.181814 1.98455,0.618385 1.98455,0.618382 1.52169,1.580783 1.5217,1.580786 0.5994,2.061929 0.59945,2.061931 -0.2056,2.452351 -0.2056,2.452357 -0.96998,2.161393 -0.96998,2.161392 -1.70615,1.595916 c -0.93839,0.877748 -2.39761,1.948673 -3.24276,2.379828 l -1.53661,0.783919 -8.69536,0.06142 -8.69536,0.06142 -0.0122,3.157263 -0.0122,3.157262 9.74239,0.01118 9.74237,0.01118 2.61646,0.33985 2.61645,0.339851 1.7906,0.770303 1.79063,0.770305 1.66233,1.777162 1.66235,1.777161 0.7262,1.64176 0.72624,1.64174 0.19495,2.5862 0.19496,2.58618 -0.59588,2.3454 -0.59583,2.34537 -1.24724,1.8223 c -1.34958,1.97183 -2.41337,2.8797 -4.80255,4.09857 l -1.53728,0.78426 -2.96206,0.36023 -2.96199,0.36022 -4.32995,-0.10451 -4.32994,-0.1045 -0.10665,-2.43558 -0.10665,-2.4356 h 6.09675 6.09672 l 1.22653,-0.41066 c 0.67462,-0.22586 1.75577,-0.80358 2.40256,-1.28381 l 1.17603,-0.87313 0.77117,-1.5116 0.77113,-1.51159 0.007,-2.34641 0.007,-2.34644 -0.55039,-1.26289 c -0.68785,-1.57464 -2.08504,-2.97947 -3.82568,-3.84514 l -1.33765,-0.66522 -11.36611,-0.10696 -11.36611,-0.10696 -0.13024,6.15088 -0.13024,6.15086 h 0.50797 0.50802 l 1.38688,1.4203 1.38688,1.4203 0.17367,1.8076 0.1737,1.80759 -0.22432,0.89383 c -0.12343,0.4916 -0.66422,1.41656 -1.20182,2.05547 l -0.97745,1.16164 -1.45825,0.66239 c -1.39958,0.63574 -2.12297,0.76062 -2.90155,0.5009 z m 2.26599,-4.60364 c 0.35793,-0.43654 0.5673,-1.44454 0.48177,-2.31962 -0.0227,-0.23389 -0.29672,-0.68041 -0.60858,-0.99227 l -0.56699,-0.56702 h -1.03626 -1.03625 l -0.56171,0.80195 c -0.30893,0.44106 -0.56171,1.05443 -0.56171,1.36302 0,0.3086 0.25278,0.92197 0.56171,1.36303 l 0.56171,0.80195 h 1.19825 1.19828 z m -0.09,-48.025346 c 0.29162,-0.416335 0.53025,-1.045588 0.53025,-1.398344 v -0.641369 l -0.74353,-0.743516 -0.74353,-0.743515 -0.93474,0.11206 -0.93474,0.112061 -0.72979,0.981855 -0.72983,0.981851 0.42058,0.923044 0.42058,0.923039 0.80132,0.296436 0.80135,0.296431 0.65595,-0.171529 c 0.36076,-0.09434 0.89454,-0.512178 1.18613,-0.928512 z m -21.50071,31.080966 -6.695708,-6.844432 6.587098,-6.733412 6.58706,-6.733413 1.54591,1.532791 1.5459,1.532789 -3.42642,3.518814 c -1.88452,1.935349 -4.15056,4.292453 -5.03566,5.238013 l -1.60921,1.719193 5.21738,5.226727 5.2174,5.22676 -1.61904,1.58031 -1.61902,1.5803 z m 38.85293,-49.292704 c -4.069,-6.722103 -12.84097,-21.489928 -12.956,-21.811748 -0.21255,-0.594516 -0.0375,-0.853061 -3.85267,5.689592 -1.85162,3.175294 -4.63336,7.88411 -6.18165,10.464035 -1.5483,2.579927 -2.92125,4.972861 -3.05099,5.317629 l -0.23592,0.626854 12.93649,0.09481 c 12.95408,0.09494 13.61746,0.07597 13.34074,-0.381166 z"
       id="path214" />
  </g>
</svg>
