<?xml version="1.0" encoding="UTF-8" standalone="no"?>
<!-- Created with Inkscape (http://www.inkscape.org/) -->

<svg
   width="97.102097mm"
   height="81.227081mm"
   viewBox="0 0 97.102097 81.227081"
   version="1.1"
   id="svg1"
   inkscape:version="1.4.2 (ebf0e940, 2025-05-08)"
   inkscape:export-filename="logo-beige.png"
   inkscape:export-xdpi="96"
   inkscape:export-ydpi="96"
   sodipodi:docname="logo-beige.svg"
   xmlns:inkscape="http://www.inkscape.org/namespaces/inkscape"
   xmlns:sodipodi="http://sodipodi.sourceforge.net/DTD/sodipodi-0.dtd"
   xmlns="http://www.w3.org/2000/svg"
   xmlns:svg="http://www.w3.org/2000/svg">
  <sodipodi:namedview
     id="namedview1"
     pagecolor="#ffffff"
     bordercolor="#000000"
     borderopacity="0.25"
     inkscape:showpageshadow="2"
     inkscape:pageopacity="0.0"
     inkscape:pagecheckerboard="0"
     inkscape:deskcolor="#d1d1d1"
     inkscape:document-units="mm"
     inkscape:zoom="1.7977413"
     inkscape:cx="208.03883"
     inkscape:cy="168.82296"
     inkscape:window-width="2560"
     inkscape:window-height="1388"
     inkscape:window-x="0"
     inkscape:window-y="52"
     inkscape:window-maximized="0"
     inkscape:current-layer="layer1" />
  <defs
     id="defs1" />
  <g
     inkscape:label="Layer 1"
     inkscape:groupmode="layer"
     id="layer1"
     transform="translate(-64.401027,-14.049809)">
    <path
       style="fill:#d4bba2;stroke-width:0.264583;fill-opacity:1"
       d="m 65.050457,94.627459 -0.64943,-0.649431 v -1.018233 -1.01823 l 1.40223,-2.234941 c 0.77123,-1.229217 3.47457,-5.687753 6.00744,-9.907857 2.53287,-4.220104 5.69126,-9.458854 7.01865,-11.641666 5.91242,-9.722631 17.53241,-29.280395 26.094993,-43.920833 l 5.26128,-8.995834 0.67038,-0.595312 0.67037,-0.595313 h 1.1402 1.14017 l 0.67619,0.531884 0.67617,0.531882 2.0999,3.503014 c 1.15493,1.926656 3.97388,6.597552 6.26435,10.379766 l 4.16446,6.876753 1.63129,0.54941 1.63129,0.54941 1.45187,0.934151 1.4519,0.934149 1.22455,1.317344 c 1.55326,1.670976 2.37656,2.983743 3.11644,4.96929 l 0.58727,1.576012 0.15089,2.138167 0.1509,2.138164 -0.44427,2.192488 -0.44426,2.192486 -0.63526,1.436447 -0.63527,1.436444 1.39335,0.891315 c 2.09555,1.340501 3.28033,2.468698 4.94152,4.705549 l 1.50524,2.026832 0.81992,1.969553 0.81994,1.969556 0.30488,1.956737 0.30488,1.956739 -0.14034,1.87225 c -0.0772,1.029737 -0.34096,2.696612 -0.58621,3.704166 l -0.44585,1.831917 -1.07209,2.248958 -1.07209,2.248958 -2.40853,2.400295 c -1.32469,1.320165 -2.70618,2.59384 -3.06998,2.830393 l -0.66146,0.430099 9.06875,0.01389 9.06878,0.01389 -0.44305,-0.859896 c -0.24365,-0.472942 -1.53961,-2.705364 -2.87988,-4.960937 -1.3403,-2.255573 -2.55143,-4.339167 -2.69145,-4.630208 l -0.25453,-0.529167 0.2834,-3.558661 0.28339,-3.558662 3.99995,6.733661 c 2.19998,3.703513 4.78959,8.028893 5.75469,9.611953 l 1.75474,2.878262 v 0.647792 0.647793 l -0.7734,0.773395 -0.77341,0.773399 H 112.8281 65.699887 Z m 61.580583,-3.588227 2.83106,-0.26847 1.86071,-0.629517 c 2.38107,-0.805577 3.83032,-1.662486 5.69696,-3.36848 l 1.49664,-1.367861 1.211,-1.697043 1.21097,-1.697043 0.7896,-1.899774 0.78957,-1.899777 0.12824,-2.645833 0.12827,-2.645833 -0.44733,-1.719792 -0.44733,-1.719792 -0.79317,-1.492855 -0.79314,-1.492856 -1.27024,-1.417561 -1.27024,-1.417561 -1.446,-0.867812 -1.44597,-0.867815 -2.34347,-0.767889 -2.3435,-0.76789 -0.27643,0.126603 c -0.15203,0.06963 -0.01,-0.07137 0.31668,-0.313333 0.3262,-0.241964 1.18898,-1.243734 1.91727,-2.226154 l 1.32419,-1.786221 0.62648,-1.424119 0.62648,-1.42412 0.18145,-1.474843 0.18143,-1.474846 -0.38973,-1.869231 -0.38976,-1.869233 -0.58751,-1.15384 c -1.36276,-2.676388 -3.22683,-4.308227 -6.25668,-5.477198 l -1.79546,-0.692724 -12.21825,-0.08825 -12.21822,-0.08825 -0.95576,1.494086 c -1.164243,1.820003 -7.715853,12.673838 -13.811353,22.880784 -8.5271,14.278686 -13.85241,23.066218 -15.5911,25.727556 -0.64059,0.980522 -1.16471,1.843725 -1.16471,1.918229 0,0.07451 12.17414,0.135363 27.05365,0.135241 L 123.8,91.307696 Z m -18.44147,-3.829878 c -0.14552,-0.04854 -0.58283,-0.15817 -0.9718,-0.243617 l -0.70721,-0.155358 -0.85441,-0.718939 -0.85442,-0.718942 -0.51326,-1.160309 -0.51326,-1.160309 0.17895,-0.953823 0.17893,-0.953826 0.70532,-0.990213 c 0.38793,-0.544619 0.97322,-1.135359 1.30064,-1.312754 l 0.59531,-0.322541 -0.003,-13.250602 -0.003,-13.250604 -0.94524,-0.612473 -0.94523,-0.612473 -0.53227,-1.203281 -0.53227,-1.203282 0.17117,-1.141423 0.17116,-1.141423 0.58291,-0.864976 0.58291,-0.864976 0.91459,-0.534149 0.91459,-0.534151 1.37813,0.01992 1.37813,0.01992 0.85373,0.499925 c 1.1222,0.657138 1.74516,1.547212 2.13945,3.056694 l 0.32229,1.233855 -0.34243,1.147395 -0.3424,1.147398 -1.01406,0.967134 -1.01405,0.967134 -0.0682,2.604741 -0.0682,2.60474 5.87446,0.07121 5.87449,0.07121 1.02442,-0.522628 1.02444,-0.522629 0.67201,-0.798632 c 0.3696,-0.439245 0.82175,-1.248137 1.00476,-1.797539 l 0.33276,-0.998908 0.0206,-1.236877 0.0206,-1.236879 -0.54552,-0.731147 c -0.30003,-0.402133 -0.87404,-0.976633 -1.27558,-1.276665 l -0.73004,-0.545521 -2.95778,-0.132291 -2.95775,-0.132292 v -1.68415 -1.684152 l 2.91042,0.133321 2.91042,0.133318 1.4552,0.45344 1.45521,0.453438 1.1158,1.159134 1.11581,1.159135 0.43952,1.511943 0.43955,1.511942 -0.15076,1.798225 -0.15076,1.798228 -0.71125,1.584875 -0.71125,1.584875 -1.25106,1.170229 c -0.68809,0.643623 -1.75809,1.428895 -2.3778,1.745046 l -1.12675,0.574821 -6.37601,0.04504 -6.37601,0.04504 -0.009,2.315112 -0.009,2.315112 7.14375,0.0082 7.14375,0.0082 1.91856,0.2492 1.91855,0.249201 1.31299,0.564837 1.313,0.564838 1.21893,1.303131 1.21894,1.303129 0.5325,1.20383 0.53253,1.20383 0.14295,1.896354 0.14296,1.896353 -0.43694,1.719792 -0.4369,1.719791 -0.91456,1.33622 c -0.9896,1.445879 -1.76964,2.111587 -3.52155,3.005346 l -1.12723,0.57507 -2.17197,0.264141 -2.17193,0.264139 -3.175,-0.07663 -3.175,-0.07662 -0.0782,-1.785938 -0.0782,-1.785937 h 4.47053 4.47052 l 0.89937,-0.301123 c 0.49467,-0.165618 1.28744,-0.589235 1.76171,-0.941371 l 0.86235,-0.640244 0.56547,-1.108401 0.56544,-1.1084 0.005,-1.720543 0.005,-1.720543 -0.40359,-0.926041 c -0.50438,-1.154619 -1.52888,-2.184726 -2.80523,-2.819477 l -0.98086,-0.487786 -8.33437,-0.07843 -8.33438,-0.07843 -0.0955,4.510204 -0.0955,4.510203 h 0.37248 0.37251 l 1.01695,1.041458 1.01695,1.041456 0.12735,1.325446 0.12737,1.325443 -0.16449,0.655415 c -0.0905,0.360479 -0.48705,1.03872 -0.88125,1.507207 l -0.71673,0.851792 -1.06929,0.485706 c -1.02626,0.466167 -1.55669,0.557736 -2.1276,0.367289 z m 1.66157,-3.375691 c 0.26246,-0.320099 0.41598,-1.059225 0.35327,-1.700893 -0.0167,-0.171508 -0.21757,-0.49893 -0.44625,-0.727604 l -0.41576,-0.415774 h -0.75985 -0.75985 l -0.41188,0.588039 c -0.22653,0.323419 -0.41188,0.773179 -0.41188,0.999461 0,0.226282 0.18535,0.676042 0.41188,0.999461 l 0.41188,0.588039 h 0.87864 0.87865 z m -0.066,-35.215285 c 0.21384,-0.305284 0.38881,-0.766694 0.38881,-1.025358 v -0.470294 l -0.5452,-0.545195 -0.5452,-0.545193 -0.68542,0.08217 -0.68541,0.08217 -0.53513,0.71996 -0.53515,0.719958 0.30839,0.676836 0.30839,0.676833 0.58759,0.217366 0.5876,0.217363 0.48098,-0.125777 c 0.26454,-0.06918 0.65594,-0.375561 0.86975,-0.680845 z m -15.765723,22.790582 -4.90973,-5.018768 4.83008,-4.937379 4.83007,-4.937379 1.13356,1.123942 1.133553,1.123942 -2.512473,2.580225 c -1.38186,1.419124 -3.04347,3.147507 -3.69247,3.840853 l -1.17999,1.260626 3.82573,3.832574 3.825743,3.832572 -1.18718,1.158779 -1.187173,1.15878 z M 122.50893,35.264339 c -2.98366,-4.929087 -9.41584,-15.757824 -9.50019,-15.993803 -0.15586,-0.435938 -0.0275,-0.62552 -2.82503,4.171982 -1.35773,2.328333 -3.39748,5.781145 -4.53279,7.672916 -1.13532,1.891771 -2.14205,3.646427 -2.23719,3.899233 l -0.17299,0.459651 9.48588,0.06952 c 9.49878,0.06961 9.98522,0.05571 9.78231,-0.279495 z"
       id="path214" />
  </g>
</svg>
